<?xml version="1.0" encoding="utf-8"?>
<!-- Generator: Adobe Illustrator 23.0.1, SVG Export Plug-In . SVG Version: 6.00 Build 0)  -->
<svg version="1.1" id="Capa_1" xmlns="http://www.w3.org/2000/svg" xmlns:xlink="http://www.w3.org/1999/xlink" x="0px" y="0px"
	 viewBox="0 0 553 702" style="enable-background:new 0 0 553 702;" xml:space="preserve">
<style type="text/css">
	.st0{opacity:0.1;}
	.st1{fill:#2C3037;}
	.st2{fill:none;stroke:#2C3037;stroke-width:3;stroke-miterlimit:10;}
</style>
<g class="st0">
	<path class="st1" d="M7.7,105.2c0,0.7-0.5,1.2-1.2,1.2H1.2c-0.7,0-1.2-0.5-1.2-1.2V100c0-0.7,0.5-1.2,1.2-1.2h5.3
		c0.7,0,1.2,0.5,1.2,1.2V105.2L7.7,105.2z"/>
	<path class="st1" d="M7.7,6.4c0,0.7-0.5,1.2-1.2,1.2H1.2C0.5,7.6,0,7.1,0,6.4V1.2C0,0.5,0.5,0,1.2,0h5.3c0.7,0,1.2,0.5,1.2,1.2V6.4
		L7.7,6.4z"/>
	<path class="st1" d="M106.8,6.4c0,0.7-0.5,1.2-1.2,1.2h-5.3C99.6,7.6,99,7,99,6.4V1.2c0-0.7,0.5-1.2,1.2-1.2h5.3
		c0.7,0,1.2,0.5,1.2,1.2v5.2H106.8z"/>
	<path class="st1" d="M181,6.4c0,0.7-0.5,1.2-1.2,1.2h-5.3c-0.7,0-1.2-0.5-1.2-1.2V1.2c0-0.7,0.5-1.2,1.2-1.2h5.3
		c0.7,0,1.2,0.5,1.2,1.2V6.4z"/>
	<path class="st1" d="M255.6,6.4c0,0.7-0.5,1.2-1.2,1.2h-5.3c-0.7,0-1.2-0.5-1.2-1.2V1.2c0-0.7,0.5-1.2,1.2-1.2h5.3
		c0.7,0,1.2,0.5,1.2,1.2V6.4z"/>
	<path class="st1" d="M303.9,6.4c0,0.7-0.5,1.2-1.2,1.2h-5.3c-0.7,0-1.2-0.5-1.2-1.2V1.2c0-0.7,0.5-1.2,1.2-1.2h5.3
		c0.7,0,1.2,0.5,1.2,1.2V6.4z"/>
	<path class="st1" d="M380.2,6.4c0,0.7-0.5,1.2-1.2,1.2h-5.3c-0.7,0-1.2-0.5-1.2-1.2V1.2c0-0.7,0.5-1.2,1.2-1.2h5.3
		c0.7,0,1.2,0.5,1.2,1.2V6.4z"/>
	<path class="st1" d="M454.1,6.4c0,0.7-0.5,1.2-1.2,1.2h-5.3c-0.7,0-1.2-0.5-1.2-1.2V1.2c0-0.7,0.5-1.2,1.2-1.2h5.3
		c0.7,0,1.2,0.5,1.2,1.2V6.4z"/>
	<path class="st1" d="M454.1,105.2c0,0.7-0.5,1.2-1.2,1.2h-5.3c-0.7,0-1.2-0.5-1.2-1.2V100c0-0.7,0.5-1.2,1.2-1.2h5.3
		c0.7,0,1.2,0.5,1.2,1.2V105.2z"/>
	<path class="st1" d="M553,105.2c0,0.7-0.5,1.2-1.2,1.2h-5.3c-0.7,0-1.2-0.5-1.2-1.2V100c0-0.7,0.5-1.2,1.2-1.2h5.3
		c0.7,0,1.2,0.5,1.2,1.2V105.2z"/>
	<path class="st1" d="M553,6.4c0,0.7-0.5,1.2-1.2,1.2h-5.3c-0.7,0-1.2-0.5-1.2-1.2V1.2c0-0.7,0.5-1.2,1.2-1.2h5.3
		c0.7,0,1.2,0.5,1.2,1.2V6.4z"/>
	<path class="st1" d="M106.8,105.2c0,0.7-0.5,1.2-1.2,1.2h-5.3c-0.7,0-1.2-0.5-1.2-1.2V100c0-0.7,0.5-1.2,1.2-1.2h5.3
		c0.7,0,1.2,0.5,1.2,1.2V105.2z"/>
	<path class="st1" d="M483.9,106.4c-0.4,0-0.7-0.5-0.7-1.2V100c0-0.7,0.3-1.2,0.7-1.2h3c0.4,0,0.7,0.5,0.7,1.2v5.2
		c0,0.7-0.3,1.2-0.7,1.2C486.9,106.4,483.9,106.4,483.9,106.4z"/>
	<line class="st2" x1="3.9" y1="102.6" x2="80.1" y2="102.6"/>
	<line class="st2" x1="3.9" y1="3.8" x2="3.9" y2="100.6"/>
	<line class="st2" x1="3.9" y1="3.8" x2="549.1" y2="3.8"/>
	<line class="st2" x1="102.9" y1="3.8" x2="102.9" y2="100.6"/>
	<line class="st2" x1="485.4" y1="102.6" x2="549.1" y2="102.6"/>
	<line class="st2" x1="450.2" y1="3.8" x2="450.2" y2="100.6"/>
	<line class="st2" x1="549.1" y1="3.8" x2="549.1" y2="100.6"/>
	<g>
		<path class="st1" d="M56,203.8c0,0.6-0.5,1.2-1.2,1.2h-5.3c-0.7,0-1.2-0.5-1.2-1.2v-5.1c0-0.6,0.5-1.2,1.2-1.2h5.3
			c0.7,0,1.2,0.5,1.2,1.2V203.8z"/>
		<path class="st1" d="M56,127.1c0,0.7-0.5,1.2-1.2,1.2h-5.3c-0.7,0-1.2-0.5-1.2-1.2v-5.2c0-0.7,0.5-1.2,1.2-1.2h5.3
			c0.7,0,1.2,0.5,1.2,1.2V127.1z"/>
		<path class="st1" d="M56,280.4c0,0.6-0.5,1.2-1.2,1.2h-5.3c-0.7,0-1.2-0.5-1.2-1.2v-5.1c0-0.6,0.5-1.2,1.2-1.2h5.3
			c0.7,0,1.2,0.5,1.2,1.2V280.4z"/>
		<path class="st1" d="M56,357c0,0.6-0.5,1.2-1.2,1.2h-5.3c-0.7,0-1.2-0.5-1.2-1.2v-5.1c0-0.6,0.5-1.2,1.2-1.2h5.3
			c0.7,0,1.2,0.5,1.2,1.2V357z"/>
		<path class="st1" d="M56,433.7c0,0.6-0.5,1.2-1.2,1.2h-5.3c-0.7,0-1.2-0.5-1.2-1.2v-5.1c0-0.6,0.5-1.2,1.2-1.2h5.3
			c0.7,0,1.2,0.5,1.2,1.2V433.7z"/>
		<path class="st1" d="M56,510.3c0,0.6-0.5,1.2-1.2,1.2h-5.3c-0.7,0-1.2-0.5-1.2-1.2v-5.1c0-0.6,0.5-1.2,1.2-1.2h5.3
			c0.7,0,1.2,0.5,1.2,1.2V510.3z"/>
		<path class="st1" d="M56,587c0,0.7-0.5,1.2-1.2,1.2h-5.3c-0.7,0-1.2-0.5-1.2-1.2v-5.2c0-0.7,0.5-1.2,1.2-1.2h5.3
			c0.7,0,1.2,0.5,1.2,1.2V587z"/>
		<line class="st2" x1="52" y1="102.6" x2="52" y2="599.4"/>
	</g>
	<g>
		<path class="st1" d="M505.9,203.7c0,0.6-0.5,1.2-1.2,1.2h-5.3c-0.7,0-1.2-0.5-1.2-1.2v-5.1c0-0.6,0.5-1.2,1.2-1.2h5.3
			c0.7,0,1.2,0.5,1.2,1.2V203.7z"/>
		<path class="st1" d="M505.9,127.1c0,0.7-0.5,1.2-1.2,1.2h-5.3c-0.7,0-1.2-0.5-1.2-1.2v-5.2c0-0.7,0.5-1.2,1.2-1.2h5.3
			c0.7,0,1.2,0.5,1.2,1.2V127.1z"/>
		<path class="st1" d="M505.9,280.4c0,0.6-0.5,1.2-1.2,1.2h-5.3c-0.7,0-1.2-0.5-1.2-1.2v-5.1c0-0.6,0.5-1.2,1.2-1.2h5.3
			c0.7,0,1.2,0.5,1.2,1.2V280.4z"/>
		<path class="st1" d="M505.9,357c0,0.6-0.5,1.2-1.2,1.2h-5.3c-0.7,0-1.2-0.5-1.2-1.2v-5.1c0-0.6,0.5-1.2,1.2-1.2h5.3
			c0.7,0,1.2,0.5,1.2,1.2V357z"/>
		<path class="st1" d="M505.9,433.6c0,0.6-0.5,1.2-1.2,1.2h-5.3c-0.7,0-1.2-0.5-1.2-1.2v-5.1c0-0.6,0.5-1.2,1.2-1.2h5.3
			c0.7,0,1.2,0.5,1.2,1.2V433.6z"/>
		<path class="st1" d="M505.9,510.3c0,0.6-0.5,1.2-1.2,1.2h-5.3c-0.7,0-1.2-0.5-1.2-1.2v-5.1c0-0.6,0.5-1.2,1.2-1.2h5.3
			c0.7,0,1.2,0.5,1.2,1.2V510.3z"/>
		<path class="st1" d="M505.9,586.9c0,0.7-0.5,1.2-1.2,1.2h-5.3c-0.7,0-1.2-0.5-1.2-1.2v-5.2c0-0.7,0.5-1.2,1.2-1.2h5.3
			c0.7,0,1.2,0.5,1.2,1.2V586.9z"/>
		<line class="st2" x1="501.9" y1="102.6" x2="501.9" y2="599.4"/>
	</g>
	<path class="st1" d="M545.3,595.8c0-0.7,0.5-1.2,1.2-1.2h5.3c0.7,0,1.2,0.5,1.2,1.2v5.2c0,0.7-0.5,1.2-1.2,1.2h-5.3
		c-0.7,0-1.2-0.5-1.2-1.2V595.8L545.3,595.8z"/>
	<path class="st1" d="M545.3,695.6c0-0.7,0.5-1.2,1.2-1.2h5.3c0.7,0,1.2,0.5,1.2,1.2v5.2c0,0.7-0.5,1.2-1.2,1.2h-5.3
		c-0.7,0-1.2-0.5-1.2-1.2V695.6L545.3,695.6z"/>
	<path class="st1" d="M446.3,695.6c0-0.7,0.5-1.2,1.2-1.2h5.3c0.7,0,1.2,0.5,1.2,1.2v5.2c0,0.7-0.5,1.2-1.2,1.2h-5.3
		c-0.7,0-1.2-0.5-1.2-1.2V695.6z"/>
	<path class="st1" d="M372,695.6c0-0.7,0.5-1.2,1.2-1.2h5.3c0.7,0,1.2,0.5,1.2,1.2v5.2c0,0.7-0.5,1.2-1.2,1.2h-5.3
		c-0.7,0-1.2-0.5-1.2-1.2V695.6z"/>
	<path class="st1" d="M297.4,695.6c0-0.7,0.5-1.2,1.2-1.2h5.3c0.7,0,1.2,0.5,1.2,1.2v5.2c0,0.7-0.5,1.2-1.2,1.2h-5.3
		c-0.7,0-1.2-0.5-1.2-1.2V695.6z"/>
	<path class="st1" d="M249.1,695.6c0-0.7,0.5-1.2,1.2-1.2h5.3c0.7,0,1.2,0.5,1.2,1.2v5.2c0,0.7-0.5,1.2-1.2,1.2h-5.3
		c-0.7,0-1.2-0.5-1.2-1.2L249.1,695.6L249.1,695.6z"/>
	<path class="st1" d="M172.8,695.6c0-0.7,0.5-1.2,1.2-1.2h5.3c0.7,0,1.2,0.5,1.2,1.2v5.2c0,0.7-0.5,1.2-1.2,1.2H174
		c-0.7,0-1.2-0.5-1.2-1.2V695.6z"/>
	<path class="st1" d="M98.9,695.6c0-0.7,0.5-1.2,1.2-1.2h5.3c0.7,0,1.2,0.5,1.2,1.2v5.2c0,0.7-0.5,1.2-1.2,1.2h-5.3
		c-0.7,0-1.2-0.5-1.2-1.2V695.6z"/>
	<path class="st1" d="M98.9,595.8c0-0.7,0.5-1.2,1.2-1.2h5.3c0.7,0,1.2,0.5,1.2,1.2v5.2c0,0.7-0.5,1.2-1.2,1.2h-5.3
		c-0.7,0-1.2-0.5-1.2-1.2V595.8z"/>
	<path class="st1" d="M0,595.8c0-0.7,0.5-1.2,1.2-1.2h5.3c0.7,0,1.2,0.5,1.2,1.2v5.2c0,0.7-0.5,1.2-1.2,1.2H1.2
		c-0.7,0-1.2-0.5-1.2-1.2V595.8z"/>
	<path class="st1" d="M0,695.6c0-0.7,0.5-1.2,1.2-1.2h5.3c0.7,0,1.2,0.5,1.2,1.2v5.2c0,0.7-0.5,1.2-1.2,1.2H1.2
		c-0.7,0-1.2-0.5-1.2-1.2V695.6z"/>
	<path class="st1" d="M446.3,595.8c0-0.7,0.5-1.2,1.2-1.2h5.3c0.7,0,1.2,0.5,1.2,1.2v5.2c0,0.7-0.5,1.2-1.2,1.2h-5.3
		c-0.7,0-1.2-0.5-1.2-1.2V595.8z"/>
	<path class="st1" d="M69.1,594.6c0.4,0,0.7,0.5,0.7,1.2v5.2c0,0.7-0.3,1.2-0.7,1.2h-3c-0.4,0-0.7-0.5-0.7-1.2v-5.2
		c0-0.7,0.3-1.2,0.7-1.2H69.1z"/>
	<line class="st2" x1="549.1" y1="598.4" x2="472.9" y2="598.4"/>
	<line class="st2" x1="549.1" y1="698.2" x2="549.1" y2="601.4"/>
	<line class="st2" x1="549.1" y1="698.2" x2="3.9" y2="698.2"/>
	<line class="st2" x1="450.1" y1="698.2" x2="450.1" y2="601.4"/>
	<line class="st2" x1="67.6" y1="598.4" x2="3.9" y2="598.4"/>
	<line class="st2" x1="102.8" y1="698.2" x2="102.8" y2="601.4"/>
	<line class="st2" x1="3.9" y1="698.2" x2="3.9" y2="601.4"/>
</g>
</svg>
