<?xml version="1.0" encoding="utf-8"?>
<!-- Generator: Adobe Illustrator 23.0.1, SVG Export Plug-In . SVG Version: 6.00 Build 0)  -->
<svg version="1.1" id="Capa_1" xmlns="http://www.w3.org/2000/svg" xmlns:xlink="http://www.w3.org/1999/xlink" x="0px" y="0px"
	 viewBox="0 0 529 814" style="enable-background:new 0 0 529 814;" xml:space="preserve">
<style type="text/css">
	.st0{opacity:0.1;}
	.st1{fill:#2D3037;}
	.st2{fill:none;stroke:#2D3037;stroke-width:3;stroke-miterlimit:10;}
	.st3{fill:none;stroke:#2D3037;stroke-width:3;stroke-linecap:round;stroke-miterlimit:10;}
	.st4{fill:none;stroke:#2D3037;stroke-linecap:round;stroke-linejoin:round;stroke-miterlimit:10;}
</style>
<g class="st0">
	<path class="st1" d="M54.6,244.6c0,0.6-0.5,1.1-1.2,1.1h-5.1c-0.6,0-1.2-0.5-1.2-1.1v-5c0-0.6,0.5-1.1,1.2-1.1h5.1
		c0.6,0,1.2,0.5,1.2,1.1V244.6z"/>
	<path class="st1" d="M54.6,174c0,0.6-0.5,1.1-1.2,1.1h-5.1c-0.6,0-1.2-0.5-1.2-1.1v-5c0-0.6,0.5-1.1,1.2-1.1h5.1
		c0.6,0,1.2,0.5,1.2,1.1V174z"/>
	<path class="st1" d="M54.6,104.9c0,0.6-0.5,1.1-1.2,1.1h-5.1c-0.6,0-1.2-0.5-1.2-1.1v-5c0-0.6,0.5-1.1,1.2-1.1h5.1
		c0.6,0,1.2,0.5,1.2,1.1V104.9z"/>
	<path class="st1" d="M7.4,100.7c0,0.6-0.5,1.1-1.2,1.1H1.2c-0.6,0-1.2-0.5-1.2-1.1v-5c0-0.6,0.5-1.1,1.2-1.1h5.1
		c0.6,0,1.2,0.5,1.2,1.1V100.7L7.4,100.7z"/>
	<path class="st1" d="M7.4,6.1c0,0.6-0.5,1.1-1.2,1.1H1.2C0.5,7.3,0,6.7,0,6.1v-5C0,0.5,0.5,0,1.2,0h5.1c0.6,0,1.2,0.5,1.2,1.1V6.1
		L7.4,6.1z"/>
	<path class="st1" d="M102.1,6.1c0,0.6-0.5,1.1-1.2,1.1h-5.1c-0.6,0-1.2-0.5-1.2-1.1v-5c0-0.6,0.5-1.1,1.2-1.1h5.1
		c0.6,0,1.2,0.5,1.2,1.1V6.1z"/>
	<path class="st1" d="M173.2,6.1c0,0.6-0.5,1.1-1.2,1.1h-5.1c-0.6,0-1.2-0.5-1.2-1.1v-5c0-0.6,0.5-1.1,1.2-1.1h5.1
		c0.6,0,1.2,0.5,1.2,1.1V6.1z"/>
	<path class="st1" d="M244.5,6.1c0,0.6-0.5,1.1-1.2,1.1h-5.1c-0.6,0-1.2-0.5-1.2-1.1v-5c0-0.6,0.5-1.1,1.2-1.1h5.1
		c0.6,0,1.2,0.5,1.2,1.1V6.1z"/>
	<path class="st1" d="M290.8,6.1c0,0.6-0.5,1.1-1.2,1.1h-5.1c-0.6,0-1.2-0.5-1.2-1.1v-5c0-0.6,0.5-1.1,1.2-1.1h5.1
		c0.6,0,1.2,0.5,1.2,1.1V6.1z"/>
	<path class="st1" d="M363.7,6.1c0,0.6-0.5,1.1-1.2,1.1h-5.1c-0.6,0-1.2-0.5-1.2-1.1v-5c0-0.6,0.5-1.1,1.2-1.1h5.1
		c0.6,0,1.2,0.5,1.2,1.1V6.1z"/>
	<path class="st1" d="M434.4,6.1c0,0.6-0.5,1.1-1.2,1.1h-5.1c-0.6,0-1.2-0.5-1.2-1.1v-5c0-0.6,0.5-1.1,1.2-1.1h5.1
		c0.6,0,1.2,0.5,1.2,1.1V6.1z"/>
	<path class="st1" d="M434.4,100.7c0,0.6-0.5,1.1-1.2,1.1h-5.1c-0.6,0-1.2-0.5-1.2-1.1v-5c0-0.6,0.5-1.1,1.2-1.1h5.1
		c0.6,0,1.2,0.5,1.2,1.1V100.7z"/>
	<path class="st1" d="M529,100.7c0,0.6-0.5,1.1-1.2,1.1h-5.1c-0.6,0-1.2-0.5-1.2-1.1v-5c0-0.6,0.5-1.1,1.2-1.1h5.1
		c0.6,0,1.2,0.5,1.2,1.1V100.7z"/>
	<path class="st1" d="M529,6.1c0,0.6-0.5,1.1-1.2,1.1h-5.1c-0.6,0-1.2-0.5-1.2-1.1v-5c0-0.6,0.5-1.1,1.2-1.1h5.1
		c0.6,0,1.2,0.5,1.2,1.1V6.1z"/>
	<path class="st1" d="M102.1,100.7c0,0.6-0.5,1.1-1.2,1.1h-5.1c-0.6,0-1.2-0.5-1.2-1.1v-5c0-0.6,0.5-1.1,1.2-1.1h5.1
		c0.6,0,1.2,0.5,1.2,1.1V100.7z"/>
	<path class="st1" d="M54.6,313.9c0,0.6-0.5,1.1-1.2,1.1h-5.1c-0.6,0-1.2-0.5-1.2-1.1v-5c0-0.6,0.5-1.1,1.2-1.1h5.1
		c0.6,0,1.2,0.5,1.2,1.1V313.9z"/>
	<path class="st1" d="M54.6,384c0,0.6-0.5,1.1-1.2,1.1h-5.1c-0.6,0-1.2-0.5-1.2-1.1v-5c0-0.6,0.5-1.1,1.2-1.1h5.1
		c0.6,0,1.2,0.5,1.2,1.1V384z"/>
	<path class="st1" d="M481.3,244.6c0,0.6-0.5,1.1-1.2,1.1H475c-0.6,0-1.2-0.5-1.2-1.1v-5c0-0.6,0.5-1.1,1.2-1.1h5.1
		c0.6,0,1.2,0.5,1.2,1.1V244.6z"/>
	<path class="st1" d="M481.3,174c0,0.6-0.5,1.1-1.2,1.1H475c-0.6,0-1.2-0.5-1.2-1.1v-5c0-0.6,0.5-1.1,1.2-1.1h5.1
		c0.6,0,1.2,0.5,1.2,1.1V174z"/>
	<path class="st1" d="M481.3,313.9c0,0.6-0.5,1.1-1.2,1.1H475c-0.6,0-1.2-0.5-1.2-1.1v-5c0-0.6,0.5-1.1,1.2-1.1h5.1
		c0.6,0,1.2,0.5,1.2,1.1V313.9z"/>
	<path class="st1" d="M481.3,384c0,0.6-0.5,1.1-1.2,1.1H475c-0.6,0-1.2-0.5-1.2-1.1v-5c0-0.6,0.5-1.1,1.2-1.1h5.1
		c0.6,0,1.2,0.5,1.2,1.1V384z"/>
	<path class="st1" d="M54.6,454.2c0,0.6-0.5,1.1-1.2,1.1h-5.1c-0.6,0-1.2-0.5-1.2-1.1v-5c0-0.6,0.5-1.1,1.2-1.1h5.1
		c0.6,0,1.2,0.5,1.2,1.1V454.2z"/>
	<path class="st1" d="M54.6,528.6c0,0.6-0.5,1.1-1.2,1.1h-5.1c-0.6,0-1.2-0.5-1.2-1.1v-5c0-0.6,0.5-1.1,1.2-1.1h5.1
		c0.6,0,1.2,0.5,1.2,1.1V528.6z"/>
	<path class="st1" d="M149.2,528.6c0,0.6-0.5,1.1-1.2,1.1H143c-0.6,0-1.2-0.5-1.2-1.1v-5c0-0.6,0.5-1.1,1.2-1.1h5.1
		c0.6,0,1.2,0.5,1.2,1.1V528.6z"/>
	<path class="st1" d="M149.2,669.1c0,0.6-0.5,1.1-1.2,1.1H143c-0.6,0-1.2-0.5-1.2-1.1v-5c0-0.6,0.5-1.1,1.2-1.1h5.1
		c0.6,0,1.2,0.5,1.2,1.1V669.1z"/>
	<path class="st1" d="M54.6,669.1c0,0.6-0.5,1.1-1.2,1.1h-5.1c-0.6,0-1.2-0.5-1.2-1.1v-5c0-0.6,0.5-1.1,1.2-1.1h5.1
		c0.6,0,1.2,0.5,1.2,1.1V669.1z"/>
	<path class="st1" d="M54.6,623.7c0,0.6-0.5,1.1-1.2,1.1h-5.1c-0.6,0-1.2-0.5-1.2-1.1v-5c0-0.6,0.5-1.1,1.2-1.1h5.1
		c0.6,0,1.2,0.5,1.2,1.1V623.7z"/>
	<path class="st1" d="M149.2,761.9c0,0.6-0.5,1.1-1.2,1.1H143c-0.6,0-1.2-0.5-1.2-1.1v-5c0-0.6,0.5-1.1,1.2-1.1h5.1
		c0.6,0,1.2,0.5,1.2,1.1V761.9z"/>
	<path class="st1" d="M149.2,808.1c0,0.6-0.5,1.1-1.2,1.1H143c-0.6,0-1.2-0.5-1.2-1.1v-5c0-0.6,0.5-1.1,1.2-1.1h5.1
		c0.6,0,1.2,0.5,1.2,1.1V808.1z"/>
	<path class="st1" d="M78,761.9c0,0.6-0.5,1.1-1.2,1.1h-5.1c-0.6,0-1.2-0.5-1.2-1.1v-5c0-0.6,0.5-1.1,1.2-1.1h5.1
		c0.6,0,1.2,0.5,1.2,1.1V761.9z"/>
	<path class="st1" d="M55.5,761.9c0,0.6-0.5,1.1-1.2,1.1h-5.1c-0.6,0-1.2-0.5-1.2-1.1v-5c0-0.6,0.5-1.1,1.2-1.1h5.1
		c0.6,0,1.2,0.5,1.2,1.1V761.9z"/>
	<path class="st1" d="M78,808.1c0,0.6-0.5,1.1-1.2,1.1h-5.1c-0.6,0-1.2-0.5-1.2-1.1v-5c0-0.6,0.5-1.1,1.2-1.1h5.1
		c0.6,0,1.2,0.5,1.2,1.1V808.1z"/>
	<path class="st1" d="M386.7,598.9c0,0.6-0.5,1.1-1.2,1.1h-5.1c-0.6,0-1.2-0.5-1.2-1.1v-5c0-0.6,0.5-1.1,1.2-1.1h5.1
		c0.6,0,1.2,0.5,1.2,1.1V598.9z"/>
	<path class="st1" d="M386.7,529.8c0,0.6-0.5,1.1-1.2,1.1h-5.1c-0.6,0-1.2-0.5-1.2-1.1v-5c0-0.6,0.5-1.1,1.2-1.1h5.1
		c0.6,0,1.2,0.5,1.2,1.1V529.8z"/>
	<path class="st1" d="M456.9,529.8c0,0.6-0.5,1.1-1.2,1.1h-5.1c-0.6,0-1.2-0.5-1.2-1.1v-5c0-0.6,0.5-1.1,1.2-1.1h5.1
		c0.6,0,1.2,0.5,1.2,1.1V529.8z"/>
	<path class="st1" d="M481.3,529.8c0,0.6-0.5,1.1-1.2,1.1H475c-0.6,0-1.2-0.5-1.2-1.1v-5c0-0.6,0.5-1.1,1.2-1.1h5.1
		c0.6,0,1.2,0.5,1.2,1.1V529.8z"/>
	<path class="st1" d="M481.3,598.9c0,0.6-0.5,1.1-1.2,1.1H475c-0.6,0-1.2-0.5-1.2-1.1v-5c0-0.6,0.5-1.1,1.2-1.1h5.1
		c0.6,0,1.2,0.5,1.2,1.1V598.9z"/>
	<path class="st1" d="M481.3,669.1c0,0.6-0.5,1.1-1.2,1.1H475c-0.6,0-1.2-0.5-1.2-1.1v-5c0-0.6,0.5-1.1,1.2-1.1h5.1
		c0.6,0,1.2,0.5,1.2,1.1V669.1z"/>
	<path class="st1" d="M456.9,761.9c0,0.6-0.5,1.1-1.2,1.1h-5.1c-0.6,0-1.2-0.5-1.2-1.1v-5c0-0.6,0.5-1.1,1.2-1.1h5.1
		c0.6,0,1.2,0.5,1.2,1.1V761.9z"/>
	<path class="st1" d="M456.9,808.1c0,0.6-0.5,1.1-1.2,1.1h-5.1c-0.6,0-1.2-0.5-1.2-1.1v-5c0-0.6,0.5-1.1,1.2-1.1h5.1
		c0.6,0,1.2,0.5,1.2,1.1V808.1z"/>
	<path class="st1" d="M481.3,761.9c0,0.6-0.5,1.1-1.2,1.1H475c-0.6,0-1.2-0.5-1.2-1.1v-5c0-0.6,0.5-1.1,1.2-1.1h5.1
		c0.6,0,1.2,0.5,1.2,1.1V761.9z"/>
	<path class="st1" d="M481.3,724.3c0,0.6-0.5,1.1-1.2,1.1H475c-0.6,0-1.2-0.5-1.2-1.1v-5c0-0.6,0.5-1.1,1.2-1.1h5.1
		c0.6,0,1.2,0.5,1.2,1.1V724.3z"/>
	<path class="st1" d="M481.3,704.2c0,0.6-0.5,1.1-1.2,1.1H475c-0.6,0-1.2-0.5-1.2-1.1v-5c0-0.6,0.5-1.1,1.2-1.1h5.1
		c0.6,0,1.2,0.5,1.2,1.1V704.2z"/>
	<path class="st1" d="M386.7,669.1c0,0.6-0.5,1.1-1.2,1.1h-5.1c-0.6,0-1.2-0.5-1.2-1.1v-5c0-0.6,0.5-1.1,1.2-1.1h5.1
		c0.6,0,1.2,0.5,1.2,1.1V669.1z"/>
	<path class="st1" d="M386.7,761.9c0,0.6-0.5,1.1-1.2,1.1h-5.1c-0.6,0-1.2-0.5-1.2-1.1v-5c0-0.6,0.5-1.1,1.2-1.1h5.1
		c0.6,0,1.2,0.5,1.2,1.1V761.9z"/>
	<path class="st1" d="M386.7,808.1c0,0.6-0.5,1.1-1.2,1.1h-5.1c-0.6,0-1.2-0.5-1.2-1.1v-5c0-0.6,0.5-1.1,1.2-1.1h5.1
		c0.6,0,1.2,0.5,1.2,1.1V808.1z"/>
	<g>
		<path class="st1" d="M244.1,529.8c0,0.6-0.5,1.1-1.2,1.1h-5.1c-0.6,0-1.2-0.5-1.2-1.1v-5c0-0.6,0.5-1.1,1.2-1.1h5.1
			c0.6,0,1.2,0.5,1.2,1.1V529.8z"/>
		<path class="st1" d="M291.3,529.8c0,0.6-0.5,1.1-1.2,1.1H285c-0.6,0-1.2-0.5-1.2-1.1v-5c0-0.6,0.5-1.1,1.2-1.1h5.1
			c0.6,0,1.2,0.5,1.2,1.1V529.8z"/>
		<path class="st1" d="M244.1,598.9c0,0.6-0.5,1.1-1.2,1.1h-5.1c-0.6,0-1.2-0.5-1.2-1.1v-5c0-0.6,0.5-1.1,1.2-1.1h5.1
			c0.6,0,1.2,0.5,1.2,1.1V598.9z"/>
		<path class="st1" d="M291.3,598.9c0,0.6-0.5,1.1-1.2,1.1H285c-0.6,0-1.2-0.5-1.2-1.1v-5c0-0.6,0.5-1.1,1.2-1.1h5.1
			c0.6,0,1.2,0.5,1.2,1.1V598.9z"/>
		<path class="st1" d="M244.1,669.1c0,0.6-0.5,1.1-1.2,1.1h-5.1c-0.6,0-1.2-0.5-1.2-1.1v-5c0-0.6,0.5-1.1,1.2-1.1h5.1
			c0.6,0,1.2,0.5,1.2,1.1V669.1z"/>
		<path class="st1" d="M291.3,669.1c0,0.6-0.5,1.1-1.2,1.1H285c-0.6,0-1.2-0.5-1.2-1.1v-5c0-0.6,0.5-1.1,1.2-1.1h5.1
			c0.6,0,1.2,0.5,1.2,1.1V669.1z"/>
		<path class="st1" d="M244.1,761.9c0,0.6-0.5,1.1-1.2,1.1h-5.1c-0.6,0-1.2-0.5-1.2-1.1v-5c0-0.6,0.5-1.1,1.2-1.1h5.1
			c0.6,0,1.2,0.5,1.2,1.1V761.9z"/>
		<path class="st1" d="M291.3,761.9c0,0.6-0.5,1.1-1.2,1.1H285c-0.6,0-1.2-0.5-1.2-1.1v-5c0-0.6,0.5-1.1,1.2-1.1h5.1
			c0.6,0,1.2,0.5,1.2,1.1V761.9z"/>
		<path class="st1" d="M244.1,808.1c0,0.6-0.5,1.1-1.2,1.1h-5.1c-0.6,0-1.2-0.5-1.2-1.1v-5c0-0.6,0.5-1.1,1.2-1.1h5.1
			c0.6,0,1.2,0.5,1.2,1.1V808.1z"/>
		<path class="st1" d="M291.3,808.1c0,0.6-0.5,1.1-1.2,1.1H285c-0.6,0-1.2-0.5-1.2-1.1v-5c0-0.6,0.5-1.1,1.2-1.1h5.1
			c0.6,0,1.2,0.5,1.2,1.1V808.1z"/>
	</g>
	<line class="st2" x1="145.5" y1="527.4" x2="145.5" y2="805.6"/>
	<line class="st2" x1="51" y1="119.2" x2="51" y2="666.6"/>
	<line class="st2" x1="74.3" y1="759.4" x2="74.3" y2="808.1"/>
	<line class="st2" x1="74.3" y1="805.6" x2="145.5" y2="805.6"/>
	<line class="st2" x1="51.8" y1="759.3" x2="145.5" y2="759.3"/>
	<line class="st2" x1="50.4" y1="621.2" x2="145.1" y2="621.2"/>
	<line class="st2" x1="50.4" y1="526.2" x2="145.1" y2="526.2"/>
	<line class="st2" x1="50.9" y1="102.4" x2="50.9" y2="119.2"/>
	<line class="st2" x1="3.7" y1="97.6" x2="98.4" y2="97.6"/>
	<line class="st2" x1="3.7" y1="3.6" x2="3.7" y2="96.2"/>
	<line class="st2" x1="3.7" y1="3.6" x2="525.3" y2="3.6"/>
	<line class="st2" x1="98.4" y1="3.6" x2="98.4" y2="96.2"/>
	<line class="st2" x1="430.7" y1="98.1" x2="525.3" y2="98.1"/>
	<line class="st2" x1="430.7" y1="3.6" x2="430.7" y2="96.2"/>
	<line class="st2" x1="525.3" y1="3.6" x2="525.3" y2="96.2"/>
	<line class="st2" x1="477.3" y1="96.3" x2="477.3" y2="104.7"/>
	<line class="st2" x1="477.5" y1="143.8" x2="477.5" y2="505.5"/>
	<line class="st2" x1="477.6" y1="505.5" x2="477.6" y2="759.4"/>
	<line class="st2" x1="477.8" y1="759.3" x2="453.2" y2="759.3"/>
	<line class="st2" x1="453.2" y1="758.1" x2="453.2" y2="805.6"/>
	<line class="st2" x1="453.2" y1="805.6" x2="382.9" y2="805.6"/>
	<line class="st2" x1="382.9" y1="805.6" x2="382.9" y2="526.7"/>
	<line class="st2" x1="382.9" y1="526.8" x2="480.7" y2="526.8"/>
	<line class="st2" x1="382.9" y1="759.4" x2="453.2" y2="759.4"/>
	<g id="Puerta_1_">
		<path class="st1" d="M481.3,145.2c0,0.4-0.5,0.7-1.2,0.7H475c-0.6,0-1.2-0.3-1.2-0.7v-2.8c0-0.4,0.5-0.7,1.2-0.7h5.1
			c0.6,0,1.2,0.3,1.2,0.7V145.2z"/>
		<path class="st1" d="M481.3,108.2c0,0.4-0.5,0.7-1.2,0.7H475c-0.6,0-1.2-0.3-1.2-0.7v-2.8c0-0.4,0.5-0.7,1.2-0.7h5.1
			c0.6,0,1.2,0.3,1.2,0.7V108.2z"/>
		<line class="st3" x1="477.2" y1="106.8" x2="457.5" y2="106.8"/>
		<line class="st3" x1="457.5" y1="143.8" x2="477.2" y2="143.8"/>
		<path class="st4" d="M457.9,106.2c0,0,0.8,18.3,19.7,18.3c0,0-19.7,2.4-19.7,19.3"/>
	</g>
	<g id="Puerta_2_">
		<path class="st1" d="M473.9,434.6c0-0.4,0.5-0.7,1.2-0.7h5.1c0.6,0,1.2,0.3,1.2,0.7v2.8c0,0.4-0.5,0.7-1.2,0.7h-5.1
			c-0.6,0-1.2-0.3-1.2-0.7V434.6z"/>
		<path class="st1" d="M473.9,471.6c0-0.4,0.5-0.7,1.2-0.7h5.1c0.6,0,1.2,0.3,1.2,0.7v2.8c0,0.4-0.5,0.7-1.2,0.7h-5.1
			c-0.6,0-1.2-0.3-1.2-0.7V471.6z"/>
		<line class="st3" x1="477.9" y1="473" x2="497.7" y2="473"/>
		<line class="st3" x1="497.7" y1="436" x2="477.9" y2="436"/>
		<path class="st4" d="M497.3,473.6c0,0-0.8-18.3-19.7-18.3c0,0,19.7-2.4,19.7-19.3"/>
	</g>
	<line class="st2" x1="50.9" y1="666.6" x2="50.9" y2="759.4"/>
	<path class="st2" d="M107.3,12.6h314.6v64.5c0,0-45.5,15.2-157.2,15.5c-111.8,0.3-157.3-15.5-157.3-15.5L107.3,12.6L107.3,12.6z"/>
</g>
</svg>
