 
<svg version="1.1" id="Layer_1" xmlns="http://www.w3.org/2000/svg" xmlns:xlink="http://www.w3.org/1999/xlink" x="0px" y="0px"
	 width="50px" height="50px" viewBox="25.5 525.5 50 50" enable-background="new 25.5 525.5 50 50" xml:space="preserve">
<g>
	<g>
		<path fill="#FF003D" d="M41.006,537.765c-4.769,0-4.834,0-8.8,0c-2.125,0-3.861,1.728-3.872,3.852l-0.06,12.019
			c-0.005,0.904,0.724,1.641,1.627,1.646c0.002,0,0.005,0,0.009,0c0.9,0,1.631-0.728,1.636-1.629l0.06-12.019
			c0-0.001,0-0.003,0-0.004c0.002-0.179,0.148-0.321,0.327-0.32s0.322,0.146,0.322,0.324l0.001,27.501
			c0,1.085,0.879,1.964,1.963,1.964c1.084,0,1.963-0.879,1.963-1.964v-15.69h0.848v15.69c0,1.085,0.879,1.963,1.963,1.963
			c1.084,0,1.963-0.878,1.963-1.963c0-25.95-0.035-11.109-0.035-27.478c0-0.184,0.145-0.335,0.329-0.342
			c0.184-0.007,0.341,0.132,0.355,0.315l0,0l-0.012,12.012c0,0.903,0.731,1.638,1.635,1.639c0.001,0,0.001,0,0.001,0
			c0.903,0,1.635-0.732,1.636-1.635l0.011-12.019c0-0.004,0-0.008,0-0.011C44.867,539.492,43.13,537.765,41.006,537.765z"/>
	</g>
</g>
<g>
	<g>
		<circle fill="#FF003D" cx="36.605" cy="533.293" r="3.39"/>
	</g>
</g>
<g>
	<g>
		<path fill="#FF003D" d="M72.634,551.095c-0.03-0.086-3.004-8.571-3.473-9.933c-0.754-2.192-2.017-3.305-3.755-3.305
			c-2.433,0-3.228,0-5.657,0c-1.738,0-3.001,1.112-3.755,3.305c-0.468,1.361-3.443,9.848-3.473,9.933
			c-0.297,0.847,0.148,1.773,0.996,2.07s1.773-0.149,2.069-0.996c0.096-0.272,1.886-5.246,2.884-8.108
			c-0.104,0.854,0.197-0.917-2.321,12.082c-0.108,0.56,0.323,1.075,0.886,1.075c0.35,0,0.77,0,1.24,0v11.779
			c0,1.077,0.872,1.949,1.949,1.949c1.076,0,1.949-0.872,1.949-1.949v-11.779c0.28,0,0.561,0,0.841,0v11.779
			c0,1.077,0.873,1.949,1.949,1.949c1.077,0,1.949-0.872,1.949-1.949v-11.779c0.47,0,0.89,0,1.24,0c0.566,0,0.994-0.518,0.886-1.075
			c-2.495-12.881-2.22-11.385-2.305-12.082c1.007,2.884,2.744,7.84,2.838,8.108c0.296,0.848,1.224,1.292,2.069,0.995
			C72.486,552.867,72.932,551.941,72.634,551.095z"/>
	</g>
</g>
<g>
	<g>
		<circle fill="#FF003D" cx="62.593" cy="533.419" r="3.366"/>
	</g>
</g>
<g>
	<g>
		<path fill="#FF003D" d="M49.09,532.087c-0.691,0-1.253,0.562-1.253,1.254v34.318c0,0.692,0.561,1.253,1.253,1.253
			c0.692,0,1.253-0.561,1.253-1.253v-34.318C50.343,532.648,49.782,532.087,49.09,532.087z"/>
	</g>
</g>
</svg>
